# xmcd
#
# Track frame offsets: 
#        150
#        20753
#        44337
#        67712
#        81264
#        106510
#        129024
#        145252
#        162887
#        179624
#        199596
#        221434
#        242421
#
# Disc length: 3470 seconds
#
# Revision: 2
# Processed by: cddbd v1.5.2PL0 Copyright (c) Steve Scherf et al.
# Submitted via: ExactAudioCopy v1.3
#
DISCID=a30d8c0d
DTITLE=Dawn Tyler Watson - Jawbreaker
DYEAR=2016
DGENRE=Blues
TTITLE0=Can't nobody
TTITLE1=Shine on
TTITLE2=Just a little bit more
TTITLE3=Son of a gun
TTITLE4=Tootsie roll blues
TTITLE5=I don't live here anymore
TTITLE6=Rotter
TTITLE7=Smoked meat
TTITLE8=Greenbacks
TTITLE9=I see
TTITLE10=Forever young
TTITLE11=It ain't elvis
TTITLE12=Shine on - rise
EXTD=
EXTT0=
EXTT1=
EXTT2=
EXTT3=
EXTT4=
EXTT5=
EXTT6=
EXTT7=
EXTT8=
EXTT9=
EXTT10=
EXTT11=
EXTT12=
PLAYORDER=
